<svg xmlns="http://www.w3.org/2000/svg" xmlns:xlink="http://www.w3.org/1999/xlink" width="500" zoomAndPan="magnify" viewBox="0 0 375 374.999991" height="500" preserveAspectRatio="xMidYMid meet" version="1.0"><defs><g/><clipPath id="55fdc1073e"><path d="M 152.039062 119.800781 L 241.472656 119.800781 L 241.472656 148.5 L 152.039062 148.5 Z M 152.039062 119.800781 " clip-rule="nonzero"/></clipPath><clipPath id="b750f5f74b"><path d="M 93.917969 37.582031 L 299.417969 37.582031 L 299.417969 90.675781 L 93.917969 90.675781 Z M 93.917969 37.582031 " clip-rule="nonzero"/></clipPath><clipPath id="ec524565f5"><path d="M 152.0625 226.492188 L 241.5 226.492188 L 241.5 255.191406 L 152.0625 255.191406 Z M 152.0625 226.492188 " clip-rule="nonzero"/></clipPath><clipPath id="86aff89e83"><path d="M 94.117188 284.316406 L 299.617188 284.316406 L 299.617188 337.410156 L 94.117188 337.410156 Z M 94.117188 284.316406 " clip-rule="nonzero"/></clipPath></defs><g clip-path="url(#55fdc1073e)"><path fill="#ffffff" d="M 158.640625 148.75 C 156.960938 148.75 155.28125 148.109375 154 146.828125 C 151.433594 144.265625 151.433594 140.109375 154 137.546875 C 159.769531 131.773438 166.503906 127.304688 174.011719 124.257812 C 181.257812 121.320312 188.914062 119.832031 196.769531 119.832031 C 204.621094 119.832031 212.277344 121.320312 219.527344 124.257812 C 227.035156 127.304688 233.769531 131.773438 239.539062 137.546875 C 242.101562 140.109375 242.101562 144.265625 239.539062 146.828125 C 236.976562 149.390625 232.820312 149.390625 230.257812 146.828125 C 221.3125 137.882812 209.417969 132.957031 196.769531 132.957031 C 184.117188 132.957031 172.226562 137.882812 163.28125 146.828125 C 162 148.109375 160.320312 148.75 158.640625 148.75 " fill-opacity="1" fill-rule="nonzero"/></g><path fill="#ffffff" d="M 263.683594 119.964844 C 262.003906 119.964844 260.324219 119.324219 259.042969 118.042969 C 224.703125 83.703125 168.832031 83.703125 134.496094 118.042969 C 131.933594 120.605469 127.777344 120.605469 125.214844 118.042969 C 122.648438 115.480469 122.648438 111.324219 125.214844 108.761719 C 134.871094 99.101562 146.136719 91.625 158.691406 86.53125 C 170.816406 81.613281 183.628906 79.121094 196.769531 79.121094 C 209.910156 79.121094 222.71875 81.613281 234.84375 86.53125 C 247.402344 91.625 258.667969 99.101562 268.324219 108.761719 C 270.890625 111.324219 270.890625 115.480469 268.324219 118.042969 C 267.042969 119.324219 265.363281 119.964844 263.683594 119.964844 " fill-opacity="1" fill-rule="nonzero"/><g clip-path="url(#b750f5f74b)"><path fill="#ffffff" d="M 293.054688 90.59375 C 291.375 90.59375 289.695312 89.953125 288.414062 88.671875 C 237.882812 38.136719 155.65625 38.136719 105.121094 88.671875 C 102.558594 91.234375 98.40625 91.234375 95.839844 88.671875 C 93.277344 86.109375 93.277344 81.953125 95.839844 79.390625 C 109.464844 65.765625 125.351562 55.21875 143.0625 48.035156 C 151.574219 44.585938 160.472656 41.945312 169.515625 40.195312 C 178.464844 38.460938 187.636719 37.582031 196.769531 37.582031 C 205.902344 37.582031 215.070312 38.460938 224.023438 40.195312 C 233.066406 41.945312 241.964844 44.585938 250.476562 48.035156 C 268.1875 55.21875 284.074219 65.765625 297.695312 79.390625 C 300.261719 81.953125 300.261719 86.109375 297.695312 88.671875 C 296.414062 89.953125 294.734375 90.59375 293.054688 90.59375 " fill-opacity="1" fill-rule="nonzero"/></g><g clip-path="url(#ec524565f5)"><path fill="#ffffff" d="M 234.898438 226.242188 C 236.578125 226.242188 238.257812 226.882812 239.539062 228.164062 C 242.101562 230.726562 242.101562 234.882812 239.539062 237.445312 C 233.765625 243.21875 227.035156 247.6875 219.527344 250.734375 C 212.277344 253.671875 204.621094 255.164062 196.769531 255.164062 C 188.914062 255.164062 181.257812 253.671875 174.011719 250.734375 C 166.503906 247.6875 159.769531 243.21875 153.996094 237.445312 C 151.433594 234.882812 151.433594 230.726562 153.996094 228.164062 C 156.5625 225.601562 160.714844 225.601562 163.28125 228.164062 C 172.226562 237.109375 184.117188 242.039062 196.769531 242.039062 C 209.417969 242.039062 221.3125 237.109375 230.257812 228.164062 C 231.539062 226.882812 233.21875 226.242188 234.898438 226.242188 " fill-opacity="1" fill-rule="nonzero"/></g><path fill="#ffffff" d="M 129.855469 255.027344 C 131.53125 255.027344 133.210938 255.667969 134.496094 256.949219 C 168.832031 291.289062 224.703125 291.289062 259.042969 256.949219 C 261.605469 254.386719 265.761719 254.386719 268.324219 256.949219 C 270.886719 259.515625 270.886719 263.667969 268.324219 266.234375 C 258.667969 275.890625 247.402344 283.367188 234.84375 288.460938 C 222.71875 293.378906 209.910156 295.871094 196.769531 295.871094 C 183.628906 295.871094 170.816406 293.378906 158.691406 288.460938 C 146.136719 283.367188 134.871094 275.890625 125.210938 266.230469 C 122.648438 263.667969 122.648438 259.515625 125.210938 256.949219 C 126.492188 255.667969 128.171875 255.027344 129.855469 255.027344 " fill-opacity="1" fill-rule="nonzero"/><g clip-path="url(#86aff89e83)"><path fill="#ffffff" d="M 100.480469 284.398438 C 102.160156 284.398438 103.839844 285.039062 105.121094 286.324219 C 155.65625 336.855469 237.882812 336.855469 288.414062 286.324219 C 290.976562 283.757812 295.132812 283.757812 297.695312 286.324219 C 300.257812 288.886719 300.257812 293.039062 297.695312 295.605469 C 284.074219 309.226562 268.1875 319.777344 250.476562 326.957031 C 241.964844 330.410156 233.066406 333.046875 224.023438 334.796875 C 215.070312 336.53125 205.902344 337.410156 196.769531 337.410156 C 187.636719 337.410156 178.464844 336.53125 169.511719 334.796875 C 160.472656 333.046875 151.570312 330.410156 143.0625 326.957031 C 125.351562 319.777344 109.464844 309.226562 95.839844 295.605469 C 93.277344 293.039062 93.277344 288.886719 95.839844 286.324219 C 97.121094 285.039062 98.800781 284.398438 100.480469 284.398438 " fill-opacity="1" fill-rule="nonzero"/></g><g fill="#ffffff" fill-opacity="1"><g transform="translate(60.206259, 202.933609)"><g><path d="M 22.25 -9.390625 C 23.15625 -9.191406 24.019531 -9.03125 24.84375 -8.90625 C 25.664062 -8.789062 26.472656 -8.734375 27.265625 -8.734375 C 30.722656 -8.734375 33.78125 -9.390625 36.4375 -10.703125 C 39.09375 -12.023438 41.128906 -14.101562 42.546875 -16.9375 C 43.734375 -19.21875 44.328125 -21.695312 44.328125 -24.375 C 44.328125 -26.457031 44 -28.351562 43.34375 -30.0625 C 42.695312 -31.78125 41.800781 -33.296875 40.65625 -34.609375 C 39.519531 -35.929688 38.179688 -37.035156 36.640625 -37.921875 C 35.109375 -38.804688 33.457031 -39.441406 31.6875 -39.828125 C 29.84375 -40.265625 27.484375 -40.484375 24.609375 -40.484375 C 24.253906 -40.484375 23.878906 -40.472656 23.484375 -40.453125 C 23.085938 -40.429688 22.675781 -40.398438 22.25 -40.359375 Z M 22.25 0 L 3.59375 0 C 3.675781 -1.332031 3.738281 -2.566406 3.78125 -3.703125 C 3.820312 -4.847656 3.84375 -5.914062 3.84375 -6.90625 L 3.84375 -35.109375 C 3.84375 -35.742188 3.820312 -36.628906 3.78125 -37.765625 C 3.738281 -38.910156 3.675781 -40.347656 3.59375 -42.078125 L 25.5 -42.078125 C 29.78125 -42.078125 33.445312 -41.390625 36.5 -40.015625 C 39.550781 -38.640625 41.921875 -36.535156 43.609375 -33.703125 C 45.335938 -30.898438 46.203125 -27.828125 46.203125 -24.484375 C 46.242188 -22.085938 45.84375 -19.816406 45 -17.671875 C 44.15625 -15.523438 42.914062 -13.65625 41.28125 -12.0625 C 39.644531 -10.46875 37.675781 -9.21875 35.375 -8.3125 C 33.070312 -7.414062 30.503906 -6.984375 27.671875 -7.015625 C 26.066406 -7.015625 24.257812 -7.191406 22.25 -7.546875 Z M 22.25 0 "/></g></g></g><g fill="#ffffff" fill-opacity="1"><g transform="translate(107.181252, 202.933609)"><g><path d="M 5.609375 -7.84375 L 24.609375 -7.84375 C 22.328125 -12.601562 19.195312 -18.171875 15.21875 -24.546875 Z M 24.671875 -45.328125 L 47.265625 -4.890625 C 48.296875 -3.003906 49.359375 -1.375 50.453125 0 L 28.734375 0 L 25.609375 -6.015625 L 4.609375 -6.015625 L 1.65625 -0.65625 C 1.5 -0.375 1.367188 -0.164062 1.265625 -0.03125 C 1.171875 0.101562 1.101562 0.191406 1.0625 0.234375 C 0.863281 0.347656 0.664062 0.40625 0.46875 0.40625 C 0.15625 0.40625 -0.0859375 0.304688 -0.265625 0.109375 C -0.441406 -0.078125 -0.53125 -0.3125 -0.53125 -0.59375 C -0.53125 -0.820312 -0.375 -1.210938 -0.0625 -1.765625 L 23.484375 -42.96875 Z M 24.671875 -45.328125 "/></g></g></g><g fill="#ffffff" fill-opacity="1"><g transform="translate(156.343749, 202.933609)"><g><path d="M 11.390625 0 C 11.472656 -1.332031 11.539062 -2.566406 11.59375 -3.703125 C 11.65625 -4.847656 11.6875 -5.914062 11.6875 -6.90625 L 11.6875 -35.109375 C 11.6875 -35.703125 11.628906 -37.414062 11.515625 -40.25 L 2.1875 -39.953125 L 0.9375 -39.890625 C 0.0703125 -39.890625 -0.359375 -40.242188 -0.359375 -40.953125 C -0.359375 -41.347656 -0.257812 -41.632812 -0.0625 -41.8125 C 0.132812 -41.988281 0.550781 -42.078125 1.1875 -42.078125 L 40.609375 -42.078125 C 41.234375 -42.078125 41.644531 -41.988281 41.84375 -41.8125 C 42.039062 -41.632812 42.140625 -41.347656 42.140625 -40.953125 C 42.140625 -40.242188 41.6875 -39.890625 40.78125 -39.890625 L 39.59375 -39.953125 L 30.28125 -40.25 C 30.15625 -37.53125 30.09375 -35.816406 30.09375 -35.109375 L 30.09375 -6.90625 C 30.09375 -5.914062 30.125 -4.847656 30.1875 -3.703125 C 30.25 -2.566406 30.316406 -1.332031 30.390625 0 Z M 11.390625 0 "/></g></g></g><g fill="#ffffff" fill-opacity="1"><g transform="translate(196.768746, 202.933609)"><g><path d="M 26.671875 -8.671875 C 28.046875 -8.753906 29.207031 -8.84375 30.15625 -8.9375 C 31.101562 -9.039062 31.851562 -9.148438 32.40625 -9.265625 C 34.09375 -9.617188 35.660156 -10.226562 37.109375 -11.09375 C 38.566406 -11.957031 39.828125 -13.03125 40.890625 -14.3125 C 41.953125 -15.59375 42.789062 -17.078125 43.40625 -18.765625 C 44.019531 -20.453125 44.328125 -22.320312 44.328125 -24.375 C 44.328125 -26.457031 44 -28.351562 43.34375 -30.0625 C 42.695312 -31.78125 41.800781 -33.296875 40.65625 -34.609375 C 39.519531 -35.929688 38.179688 -37.035156 36.640625 -37.921875 C 35.109375 -38.804688 33.457031 -39.441406 31.6875 -39.828125 C 29.84375 -40.265625 27.484375 -40.484375 24.609375 -40.484375 C 24.296875 -40.484375 23.953125 -40.472656 23.578125 -40.453125 C 23.203125 -40.429688 22.757812 -40.398438 22.25 -40.359375 L 22.25 -12.15625 C 23.269531 -11.375 24.144531 -10.695312 24.875 -10.125 C 25.601562 -9.550781 26.203125 -9.066406 26.671875 -8.671875 Z M 22.25 0 L 3.59375 0 C 3.675781 -1.332031 3.738281 -2.566406 3.78125 -3.703125 C 3.820312 -4.847656 3.84375 -5.914062 3.84375 -6.90625 L 3.84375 -35.109375 C 3.84375 -35.742188 3.820312 -36.628906 3.78125 -37.765625 C 3.738281 -38.910156 3.675781 -40.347656 3.59375 -42.078125 L 25.5 -42.078125 C 29.78125 -42.078125 33.445312 -41.390625 36.5 -40.015625 C 39.550781 -38.640625 41.921875 -36.535156 43.609375 -33.703125 C 45.335938 -30.898438 46.203125 -27.828125 46.203125 -24.484375 C 46.203125 -22.285156 45.859375 -20.179688 45.171875 -18.171875 C 44.484375 -16.171875 43.429688 -14.382812 42.015625 -12.8125 C 40.597656 -11.238281 38.804688 -9.9375 36.640625 -8.90625 C 34.484375 -7.882812 31.945312 -7.253906 29.03125 -7.015625 C 33.5625 -3.992188 38.164062 -2.109375 42.84375 -1.359375 C 43.351562 -1.273438 43.695312 -1.144531 43.875 -0.96875 C 44.050781 -0.789062 44.140625 -0.585938 44.140625 -0.359375 C 44.140625 -0.0351562 44 0.238281 43.71875 0.46875 C 43.445312 0.707031 43.097656 0.828125 42.671875 0.828125 C 42.117188 0.828125 41.191406 0.648438 39.890625 0.296875 C 37.566406 -0.335938 35.441406 -1.164062 33.515625 -2.1875 C 31.898438 -2.96875 30.269531 -3.96875 28.625 -5.1875 C 28.070312 -5.625 27.265625 -6.234375 26.203125 -7.015625 C 25.140625 -7.804688 23.820312 -8.8125 22.25 -10.03125 Z M 22.25 0 "/></g></g></g><g fill="#ffffff" fill-opacity="1"><g transform="translate(243.743734, 202.933609)"><g><path d="M 3.546875 0 C 3.617188 -1.332031 3.6875 -2.566406 3.75 -3.703125 C 3.8125 -4.847656 3.84375 -5.914062 3.84375 -6.90625 L 3.84375 -35.109375 C 3.84375 -35.742188 3.8125 -36.628906 3.75 -37.765625 C 3.6875 -38.910156 3.617188 -40.347656 3.546875 -42.078125 L 22.546875 -42.078125 C 22.460938 -40.347656 22.390625 -38.910156 22.328125 -37.765625 C 22.273438 -36.628906 22.25 -35.742188 22.25 -35.109375 L 22.25 -6.90625 C 22.25 -5.914062 22.273438 -4.847656 22.328125 -3.703125 C 22.390625 -2.566406 22.460938 -1.332031 22.546875 0 Z M 3.546875 0 "/></g></g></g><g fill="#ffffff" fill-opacity="1"><g transform="translate(268.881227, 202.933609)"><g><path d="M 22.25 -29.03125 L 22.25 -6.90625 C 22.25 -5.914062 22.273438 -4.847656 22.328125 -3.703125 C 22.390625 -2.566406 22.460938 -1.332031 22.546875 0 L 3.546875 0 C 3.617188 -1.332031 3.6875 -2.566406 3.75 -3.703125 C 3.8125 -4.847656 3.84375 -5.914062 3.84375 -6.90625 L 3.84375 -35.109375 C 3.84375 -35.742188 3.8125 -36.628906 3.75 -37.765625 C 3.6875 -38.910156 3.617188 -40.347656 3.546875 -42.078125 L 22.546875 -42.078125 C 22.460938 -40.347656 22.390625 -38.910156 22.328125 -37.765625 C 22.273438 -36.628906 22.25 -35.742188 22.25 -35.109375 L 22.25 -31.28125 L 31.34375 -36.59375 L 39.25 -41.546875 C 40.03125 -41.984375 40.695312 -42.296875 41.25 -42.484375 C 41.488281 -42.566406 41.6875 -42.609375 41.84375 -42.609375 C 42.351562 -42.609375 42.882812 -42.429688 43.4375 -42.078125 C 43.632812 -41.960938 43.734375 -41.785156 43.734375 -41.546875 C 43.734375 -41.347656 43.660156 -41.179688 43.515625 -41.046875 C 43.378906 -40.910156 43 -40.703125 42.375 -40.421875 C 41.582031 -40.023438 40.742188 -39.601562 39.859375 -39.15625 C 38.972656 -38.707031 38.019531 -38.207031 37 -37.65625 L 29.859375 -33.703125 L 39.296875 -14.28125 C 40.285156 -12.238281 41.332031 -10.253906 42.4375 -8.328125 C 43.21875 -6.867188 43.910156 -5.617188 44.515625 -4.578125 C 45.128906 -3.535156 45.65625 -2.675781 46.09375 -2 C 46.363281 -1.457031 46.539062 -1.164062 46.625 -1.125 C 46.664062 -1 46.6875 -0.859375 46.6875 -0.703125 C 46.6875 -0.390625 46.546875 -0.15625 46.265625 0 C 45.796875 0.351562 45.34375 0.53125 44.90625 0.53125 C 44.394531 0.53125 43.925781 0.078125 43.5 -0.828125 L 41.71875 -4.359375 L 37.1875 -13.921875 L 28.09375 -32.578125 Z M 22.25 -29.03125 "/></g></g></g><g fill="#ffffff" fill-opacity="1"><g transform="translate(68.793758, 220.657457)"><g><path d="M 2.21875 0 L 2.21875 -2.4375 L 4.65625 -2.4375 L 4.65625 0 Z M 2.21875 0 "/></g></g></g><g fill="#ffffff" fill-opacity="1"><g transform="translate(75.569175, 220.657457)"><g><path d="M 0.78125 -5.234375 L 0.78125 -7.390625 L 7.359375 -7.390625 L 7.359375 -5.234375 Z M 0.78125 -5.234375 "/></g></g></g><g fill="#ffffff" fill-opacity="1"><g transform="translate(83.690143, 220.657457)"><g><path d="M 0.78125 -5.234375 L 0.78125 -7.390625 L 7.359375 -7.390625 L 7.359375 -5.234375 Z M 0.78125 -5.234375 "/></g></g></g><g fill="#ffffff" fill-opacity="1"><g transform="translate(91.81111, 220.657457)"><g><path d="M 2.21875 0 L 2.21875 -2.4375 L 4.65625 -2.4375 L 4.65625 0 Z M 2.21875 0 "/></g></g></g><g fill="#ffffff" fill-opacity="1"><g transform="translate(124.312496, 220.657457)"><g><path d="M 2.21875 0 L 2.21875 -2.4375 L 4.65625 -2.4375 L 4.65625 0 Z M 2.21875 0 "/></g></g></g><g fill="#ffffff" fill-opacity="1"><g transform="translate(131.087913, 220.657457)"><g><path d="M 0.78125 -5.234375 L 0.78125 -7.390625 L 7.359375 -7.390625 L 7.359375 -5.234375 Z M 0.78125 -5.234375 "/></g></g></g><g fill="#ffffff" fill-opacity="1"><g transform="translate(172.493739, 220.657457)"><g><path d="M 0.78125 -5.234375 L 0.78125 -7.390625 L 7.359375 -7.390625 L 7.359375 -5.234375 Z M 0.78125 -5.234375 "/></g></g></g><g fill="#ffffff" fill-opacity="1"><g transform="translate(209.418742, 220.657457)"><g><path d="M 2.21875 0 L 2.21875 -2.4375 L 4.65625 -2.4375 L 4.65625 0 Z M 2.21875 0 "/></g></g></g><g fill="#ffffff" fill-opacity="1"><g transform="translate(216.194159, 220.657457)"><g><path d="M 0.78125 -5.234375 L 0.78125 -7.390625 L 7.359375 -7.390625 L 7.359375 -5.234375 Z M 0.78125 -5.234375 "/></g></g></g><g fill="#ffffff" fill-opacity="1"><g transform="translate(224.315126, 220.657457)"><g><path d="M 2.21875 0 L 2.21875 -2.4375 L 4.65625 -2.4375 L 4.65625 0 Z M 2.21875 0 "/></g></g></g><g fill="#ffffff" fill-opacity="1"><g transform="translate(249.537497, 220.657457)"><g><path d="M 2.21875 0 L 2.21875 -2.4375 L 4.65625 -2.4375 L 4.65625 0 Z M 2.21875 0 "/></g></g></g><g fill="#ffffff" fill-opacity="1"><g transform="translate(256.312914, 220.657457)"><g><path d="M 2.21875 0 L 2.21875 -2.4375 L 4.65625 -2.4375 L 4.65625 0 Z M 2.21875 0 "/></g></g></g><g fill="#ffffff" fill-opacity="1"><g transform="translate(280.324995, 220.657457)"><g><path d="M 0.78125 -5.234375 L 0.78125 -7.390625 L 7.359375 -7.390625 L 7.359375 -5.234375 Z M 0.78125 -5.234375 "/></g></g></g><g fill="#ffffff" fill-opacity="1"><g transform="translate(288.445962, 220.657457)"><g><path d="M 2.21875 0 L 2.21875 -2.4375 L 4.65625 -2.4375 L 4.65625 0 Z M 2.21875 0 "/></g></g></g><g fill="#ffffff" fill-opacity="1"><g transform="translate(295.221379, 220.657457)"><g><path d="M 0.78125 -5.234375 L 0.78125 -7.390625 L 7.359375 -7.390625 L 7.359375 -5.234375 Z M 0.78125 -5.234375 "/></g></g></g></svg>